<svg width="182" height="265" viewBox="0 0 182 265" fill="none" xmlns="http://www.w3.org/2000/svg">
<path d="M74.0782 256.085H73.2842V250.007H74.0782V256.085Z" fill="white"/>
<path d="M75.9931 256.086H75.1991V251.41H75.9931V252.252C75.9931 252.252 76.0398 252.19 76.0709 252.151C76.1021 252.112 76.1721 252.026 76.2733 251.909C76.3823 251.792 76.4913 251.691 76.608 251.613C76.7248 251.527 76.8805 251.449 77.0595 251.379C77.2463 251.309 77.4332 251.27 77.6278 251.27C78.1104 251.27 78.4996 251.41 78.7876 251.683C79.0756 251.964 79.2157 252.369 79.2157 252.907V256.086H78.4217V253.094C78.4217 252.688 78.3283 252.385 78.1493 252.182C77.9703 251.979 77.7134 251.878 77.3942 251.878C76.9973 251.878 76.6625 252.018 76.3979 252.299C76.1332 252.579 75.9931 252.985 75.9931 253.514V256.086Z" fill="white"/>
<path d="M84.0428 256.085H83.2489V250.615H81.1005V250.007H86.1913V250.615H84.0428V256.085Z" fill="white"/>
<path d="M85.911 256.086V251.41H86.705V252.665C86.7205 252.595 86.7595 252.509 86.8217 252.4C86.884 252.291 86.9696 252.151 87.0942 251.979C87.2109 251.808 87.39 251.66 87.6079 251.543C87.8259 251.426 88.075 251.364 88.3396 251.364H88.5732V252.112H88.2929C87.8025 252.112 87.4133 252.275 87.1331 252.61C86.8529 252.945 86.7128 253.444 86.7128 254.122V256.086H85.911Z" fill="white"/>
<path d="M92.4964 255.291C92.4964 255.291 92.4652 255.353 92.4419 255.392C92.4185 255.439 92.3562 255.509 92.2628 255.618C92.1694 255.727 92.0604 255.821 91.9437 255.899C91.8269 255.977 91.6712 256.055 91.4844 256.125C91.2976 256.195 91.0874 256.226 90.8695 256.226C90.3557 256.226 89.951 256.094 89.6629 255.837C89.3749 255.572 89.2348 255.237 89.2348 254.824C89.2348 254.387 89.3983 254.037 89.733 253.772C90.0677 253.507 90.597 253.374 91.3365 253.374C91.8191 253.374 92.1383 253.312 92.2862 253.179C92.4341 253.047 92.5041 252.868 92.5041 252.626C92.5041 252.096 92.1149 251.831 91.3365 251.831C90.5581 251.831 90.1222 252.159 90.1222 252.813H89.3282C89.3282 252.299 89.5073 251.909 89.8731 251.652C90.239 251.395 90.7216 251.27 91.3365 251.27C92.6443 251.27 93.2981 251.785 93.2981 252.813V254.964C93.2981 255.081 93.2981 255.166 93.3059 255.221C93.3059 255.275 93.3293 255.33 93.3604 255.392C93.3915 255.455 93.4382 255.494 93.5005 255.517C93.5628 255.533 93.6562 255.54 93.7652 255.525V256.086C93.625 256.117 93.4849 256.133 93.3448 256.133C93.0724 256.133 92.8622 256.086 92.7221 255.992C92.582 255.899 92.5041 255.712 92.5041 255.431V255.291H92.4964ZM92.4964 253.795V253.475C92.4964 253.475 92.4808 253.507 92.4652 253.522C92.4496 253.538 92.4107 253.569 92.3485 253.608C92.2862 253.647 92.2161 253.686 92.1305 253.717C92.0449 253.748 91.9281 253.779 91.7646 253.803C91.609 253.826 91.4299 253.842 91.2353 253.842C90.924 253.842 90.6515 253.912 90.418 254.044C90.1845 254.185 90.0677 254.411 90.0677 254.73C90.0677 255.011 90.1611 255.237 90.3324 255.408C90.5114 255.579 90.7527 255.665 91.0485 255.665C91.4377 255.665 91.7724 255.517 92.0604 255.213C92.3485 254.909 92.4964 254.442 92.4964 253.795Z" fill="white"/>
<path d="M95.392 256.086H94.598V251.41H95.392V252.252C95.392 252.252 95.4387 252.19 95.4699 252.151C95.501 252.104 95.571 252.026 95.6722 251.909C95.7812 251.792 95.8902 251.691 96.0069 251.613C96.1237 251.527 96.2794 251.449 96.4584 251.379C96.6375 251.309 96.8321 251.27 97.0189 251.27C97.5015 251.27 97.8907 251.41 98.1787 251.683C98.4667 251.964 98.6068 252.369 98.6068 252.907V256.086H97.8129V253.094C97.8129 252.688 97.7195 252.385 97.5326 252.182C97.3458 251.979 97.0967 251.878 96.7854 251.878C96.3884 251.878 96.0537 252.018 95.7812 252.299C95.5166 252.579 95.3764 252.985 95.3764 253.514V256.086H95.392Z" fill="white"/>
<path d="M99.502 254.683H100.296C100.296 254.979 100.405 255.213 100.623 255.392C100.841 255.572 101.152 255.665 101.557 255.665C102.001 255.665 102.312 255.579 102.499 255.408C102.686 255.237 102.771 255.026 102.771 254.777C102.771 254.216 102.32 253.935 101.417 253.935C100.825 253.935 100.374 253.826 100.062 253.616C99.7511 253.405 99.5954 253.086 99.5954 252.673C99.5954 252.26 99.7667 251.94 100.109 251.675C100.452 251.41 100.934 251.27 101.557 251.27C101.931 251.27 102.25 251.317 102.514 251.418C102.779 251.52 102.974 251.644 103.09 251.808C103.215 251.964 103.301 252.12 103.347 252.268C103.394 252.416 103.425 252.564 103.425 252.72H102.631C102.631 252.634 102.616 252.548 102.592 252.455C102.561 252.369 102.514 252.275 102.444 252.166C102.374 252.057 102.265 251.979 102.11 251.917C101.954 251.855 101.775 251.823 101.557 251.823C101.199 251.823 100.927 251.894 100.732 252.042C100.537 252.182 100.436 252.392 100.436 252.665C100.436 253.133 100.856 253.366 101.697 253.366C102.328 253.366 102.81 253.483 103.129 253.709C103.449 253.943 103.612 254.262 103.612 254.675C103.612 255.143 103.441 255.517 103.09 255.798C102.74 256.078 102.234 256.218 101.557 256.218C100.88 256.218 100.358 256.078 100.016 255.79C99.6733 255.501 99.502 255.135 99.502 254.675V254.683Z" fill="white"/>
<path d="M105.34 250.896H104.546V250.008H105.34V250.896ZM105.34 256.086H104.546V251.41H105.34V256.086Z" fill="white"/>
<path d="M106.134 252.018V251.41H107.068V250.008H107.862V251.41H108.89V252.018H107.862V254.917C107.862 255.166 107.901 255.338 107.971 255.431C108.041 255.525 108.166 255.571 108.329 255.571L108.89 255.532V256.086C108.672 256.148 108.407 256.179 108.096 256.179C107.706 256.179 107.442 256.086 107.294 255.891C107.146 255.696 107.068 255.377 107.068 254.917V252.018H106.134Z" fill="white"/>
<path d="M141.483 233.955L133.238 239.845L90.9999 179.938L48.7623 239.845L40.5167 233.955L90.9999 162.437L141.483 233.955Z" fill="white"/>
<path d="M129.139 128.673H139.683C139.683 131.423 139.316 134.082 138.491 136.74C137.665 139.399 136.382 141.966 134.64 144.533C132.898 147.1 130.331 149.117 127.03 150.676C123.73 152.235 119.879 153.06 115.479 153.06C111.078 153.06 106.861 152.326 102.918 150.676C98.9761 149.117 95.5839 147.192 92.8335 144.992C90.083 142.791 87.4242 140.591 84.7655 138.299C82.1984 136.099 79.3563 134.173 76.2391 132.615C73.122 131.056 70.0049 130.231 66.7044 130.231C61.6619 130.231 58.0863 131.698 55.9776 134.724C53.9606 137.657 52.8605 141.049 52.8605 144.9H42.3172C42.3172 142.15 42.6839 139.491 43.509 136.832C44.3341 134.173 45.6177 131.606 47.3596 129.039C49.1016 126.472 51.6686 124.455 54.9691 122.897C58.2696 121.338 62.1203 120.513 66.521 120.513C70.9217 120.513 75.139 121.338 79.0813 122.897C83.0236 124.455 86.3241 126.38 89.1662 128.581C92.0083 130.781 94.5754 132.982 97.2341 135.182C99.8012 137.382 102.643 139.308 105.76 140.866C108.878 142.425 111.995 143.25 115.295 143.25C120.338 143.25 123.913 141.783 126.022 138.757C128.039 135.824 129.139 132.431 129.139 128.581V128.673Z" fill="white"/>
<path fill-rule="evenodd" clip-rule="evenodd" d="M90.9999 82.9652C96.277 82.9652 101.235 85.4909 104.337 89.7615L118.602 109.394L126.84 103.41L112.309 83.4094C109.269 79.225 108.416 73.8395 110.014 68.9206C111.612 64.0018 115.468 60.1462 120.386 58.5473L143.899 50.9078L140.752 41.2239L116.544 49.0888C111.787 50.6347 106.578 49.81 102.532 46.8693C98.4854 43.9299 96.091 39.2312 96.091 34.2288V8.77539H85.9086V34.2288C85.9086 39.2312 83.5142 43.9299 79.4679 46.8693C75.4215 49.81 70.2123 50.6347 65.4556 49.0888L41.2476 41.2239L38.1011 50.9078L61.6133 58.5473C66.5318 60.1462 70.3879 64.0018 71.9861 68.9206C73.5842 73.8395 72.7311 79.225 69.6912 83.4094L55.1601 103.41L63.3979 109.394L77.6626 89.7615C80.7644 85.4909 85.7227 82.9652 90.9999 82.9652ZM102.879 62.5221C102.879 69.2707 97.5608 74.7411 91 74.7411C84.4391 74.7411 79.1204 69.2707 79.1204 62.5221C79.1204 55.7736 84.4391 50.3032 91 50.3032C97.5608 50.3032 102.879 55.7736 102.879 62.5221Z" fill="white"/>
</svg>
